<svg version="1" xmlns="http://www.w3.org/2000/svg" width="302.667" height="302.667" viewBox="0 0 227.000000 227.000000"><path d="M104 1.1c-9.7 1.4-16.9 3-23.1 5-3.5 1.2-7.1 2.3-7.9 2.4-.8.2-1.5.4-1.5.5 0 .1-.9.3-2 .5s-2.1.9-2.3 1.4C67 11.5 66 12 65 12c-1 0-2 .3-2.2.7-.1.5-2.1 1.7-4.2 2.8-2.2 1.1-4.4 2.5-5 3C52 19.9 44.2 25 43.5 25c-.4 0-2.1 1.5-3.9 3.2-1.8 1.8-4.8 4.6-6.5 6.3-1.8 1.6-4.1 4.1-5.2 5.5-1 1.4-3.2 4.2-4.9 6.4-1.6 2.1-3 4.5-3 5.2 0 .8-.3 1.4-.7 1.4-1 .1-6.6 7.6-6.9 9.2-.1.7-.8 2.6-1.5 4.3-.7 1.6-1.4 3.4-1.4 4-.1.5-.8 2.3-1.4 4-2.7 6.3-5.4 17.2-5.6 22.1-.1 2.8-.4 5.5-.7 6-.5.9-.2 15.2.5 27.9.2 3.3.9 7 1.5 8.1.6 1.2 1.3 3.8 1.5 5.9.3 2 1 4.1 1.7 4.5.6.4 1.1 1.1 1.1 1.6-.2 1.6 3.2 11.4 4 12 .5.3.9 1.3.9 2.3 0 1 1.1 3.1 2.5 4.7s3.9 5.2 5.4 8c1.6 2.8 4.2 6.2 5.8 7.5 1.5 1.3 4.7 4.8 7.1 7.6 2.4 2.9 6 6.2 8 7.4 2 1.2 5.6 3.8 8 5.6 2.3 1.9 4.2 3.1 4.2 2.6 0-.4.4-.3.8.3.9 1.3 11.2 6.6 11.2 5.8 0-.4.8 0 1.8.8 3.3 2.8 16.1 7.2 24.7 8.4 5.4.8 13.9 1.7 17.3 1.7 1.7 0 3.2.5 3.2.9 0 .5.6.6 1.2.1.7-.4 2.9-.8 4.8-1 10.1-.7 17.1-1.8 25-4 .8-.3 2.7-.7 4.3-1 1.5-.3 2.7-.9 2.7-1.4 0-.5.7-.9 1.6-.9 4.7 0 26.8-13.3 35.4-21.3 1.6-1.5 3.4-2.7 3.9-2.7 1.2 0 6.1-4.4 6.1-5.4 0-.4 1.6-2.7 3.5-5 1.9-2.4 3.5-4.7 3.5-5.1 0-.4 1.6-3 3.5-5.6 1.9-2.7 3.5-5.3 3.5-5.7 0-.5 1-2.8 2.2-5.3 1.2-2.4 2.3-4.7 2.4-5.2.1-.4.3-.9.4-1.2.1-.3.3-.8.5-1.3.1-.4 1.2-2.9 2.4-5.6 1.2-2.7 2.4-7.1 2.6-9.8.3-2.8.7-5.3.9-5.7 1-1.6 1.7-6.9 1.6-13.1-.1-7.7-.2-6.7 0-15.5.1-3.9-.4-8.3-1-9.9-.6-1.6-1.3-4.9-1.6-7.4-.6-4.7-3.6-13.2-6-17-.8-1.2-1.2-2.2-1-2.2.7 0-7.6-16.4-8.9-17.5-.6-.6-2.7-3-4.6-5.5-1.8-2.5-4.2-5.4-5.1-6.4-1-1.1-1.8-2.4-1.8-2.8 0-1.1-6.4-6.8-10.4-9.2-1.7-1-4.8-3.4-6.9-5.2-2-1.9-4.2-3.4-4.8-3.4-.6 0-2.3-.8-3.7-1.9-1.5-1-4.4-2.4-6.4-3.2-2.1-.7-3.8-1.7-3.8-2.2 0-.4-.4-.5-1-.2-.5.3-1 .1-1-.4 0-.6-.7-1.1-1.5-1.1-.9 0-4.4-.9-7.8-2.1-7.1-2.4-8.8-2.8-13.7-3.5-1.9-.3-4.7-1-6.1-1.5-3-1.2-17.6-1.7-23.9-.8z"/></svg>